<svg width="30" height="30" viewBox="0 0 30 30" fill="none" xmlns="http://www.w3.org/2000/svg">
<g clip-path="url(#clip0_23_74)">
<path d="M29.375 8.13372C29.2052 7.52776 28.8743 6.97915 28.4175 6.54622C27.9479 6.09998 27.3723 5.78077 26.745 5.61872C24.3975 4.99997 14.9925 4.99997 14.9925 4.99997C11.0717 4.95536 7.15183 5.15157 3.25504 5.58747C2.62778 5.76149 2.05324 6.08783 1.58254 6.53747C1.12004 6.98247 0.785039 7.53122 0.610039 8.13247C0.189655 10.3972 -0.0145959 12.6967 3.90572e-05 15C-0.0149609 17.3012 0.188789 19.6 0.610039 21.8675C0.781289 22.4662 1.11504 23.0125 1.57879 23.4537C2.04254 23.895 2.62004 24.2137 3.25504 24.3825C5.63379 25 14.9925 25 14.9925 25C18.9184 25.0446 22.8432 24.8484 26.745 24.4125C27.3723 24.2504 27.9479 23.9312 28.4175 23.485C28.8741 23.0521 29.2046 22.5034 29.3738 21.8975C29.8052 19.6337 30.0149 17.3332 30 15.0287C30.0325 12.7145 29.823 10.4032 29.375 8.13247V8.13372ZM12.0025 19.28V10.7212L19.8275 15.0012L12.0025 19.28Z" fill="white"/>
</g>
<defs>
<clipPath id="clip0_23_74">
<rect width="30" height="30" fill="white"/>
</clipPath>
</defs>
</svg>
